<svg width="235" height="430" viewBox="0 0 235 430" fill="none" xmlns="http://www.w3.org/2000/svg">
<path d="M145.417 429.437H130.658C128.802 429.435 127.023 428.696 125.71 427.384C124.398 426.072 123.66 424.293 123.658 422.437V299.423C123.66 297.567 124.398 295.788 125.71 294.476C127.023 293.163 128.802 292.425 130.658 292.423H145.417C147.273 292.425 149.052 293.163 150.364 294.476C151.677 295.788 152.415 297.567 152.417 299.423V422.437C152.415 424.293 151.677 426.072 150.364 427.384C149.052 428.696 147.273 429.435 145.417 429.437V429.437Z" fill="#DFFFFB"/>
<path d="M176.609 429.437H161.85C159.994 429.435 158.215 428.696 156.902 427.384C155.59 426.072 154.852 424.293 154.85 422.437V299.423C154.852 297.567 155.59 295.788 156.902 294.476C158.215 293.163 159.994 292.425 161.85 292.423H176.609C178.465 292.425 180.244 293.163 181.557 294.476C182.869 295.788 183.607 297.567 183.609 299.423V422.437C183.607 424.293 182.869 426.072 181.557 427.384C180.244 428.696 178.465 429.435 176.609 429.437V429.437Z" fill="#DFFFFB"/>
<path d="M181.614 338.341H124.614C122.36 338.338 120.2 337.442 118.606 335.849C117.013 334.255 116.116 332.095 116.114 329.841V313.841C116.116 311.588 117.013 309.427 118.606 307.834C120.2 306.24 122.36 305.344 124.614 305.341H181.614C183.867 305.344 186.028 306.24 187.621 307.834C189.215 309.427 190.111 311.588 190.114 313.841V329.841C190.111 332.095 189.215 334.255 187.621 335.849C186.028 337.442 183.867 338.338 181.614 338.341V338.341Z" fill="#2F2E41"/>
<path d="M158.46 40.0646C160.201 22.7057 171.61 6.10555 189.026 1.58784C197.525 -0.668752 206.548 0.149618 214.502 3.89851C221.702 7.5306 227.362 13.6223 230.457 21.0693C233.511 28.4362 234.68 36.4482 233.859 44.3807C232.929 53.0499 230.162 61.4213 225.742 68.9367C221.018 77.2652 214.875 84.7111 208.427 91.7517C201.857 98.9251 194.424 105.525 188.896 113.578C183.993 120.721 180.051 130.421 184.883 138.642C186.776 141.656 189.498 144.06 192.723 145.567C195.948 147.073 199.539 147.618 203.066 147.135C204.796 146.873 206.469 146.318 208.013 145.493C209.715 144.584 211.232 147.173 209.527 148.084C203.056 151.538 195.012 150.755 188.899 146.871C181.854 142.393 178.709 134.491 180.03 126.323C181.535 117.01 188.029 109.013 194.265 102.31C200.778 95.3071 207.6 88.6206 213.633 81.1813C219.592 73.8329 224.913 65.7222 228.103 56.7638C230.782 49.2775 231.676 41.269 230.713 33.3763C229.762 25.839 226.832 18.3706 221.573 12.7939C218.666 9.79855 215.187 7.41863 211.341 5.79591C207.495 4.17318 203.362 3.34081 199.188 3.34831C190.525 3.23761 182.126 6.32574 175.598 12.0216C169.161 17.779 164.619 25.3512 162.57 33.7408C162.046 35.8189 161.675 37.9324 161.46 40.0646C161.269 41.9674 158.267 41.9871 158.46 40.0646H158.46Z" fill="#2F2E41"/>
<path d="M168.005 39.376L153.762 34.6729C153.075 34.4467 152.441 34.0875 151.893 33.6159C151.346 33.1443 150.897 32.5695 150.572 31.9244C150.247 31.2792 150.052 30.5763 149.999 29.8559C149.946 29.1354 150.035 28.4116 150.261 27.7256C150.488 27.0396 150.847 26.405 151.319 25.8579C151.791 25.3109 152.366 24.8622 153.011 24.5374C153.657 24.2127 154.36 24.0183 155.08 23.9653C155.801 23.9123 156.524 24.0017 157.21 24.2285L171.454 28.9317C172.141 29.1574 172.776 29.5162 173.324 29.9877C173.872 30.4592 174.321 31.0341 174.647 31.6795C174.973 32.3249 175.168 33.0282 175.221 33.749C175.275 34.4699 175.186 35.1942 174.959 35.8806C174.732 36.567 174.373 37.202 173.9 37.7492C173.428 38.2965 172.853 38.7453 172.207 39.0699C171.561 39.3945 170.857 39.5887 170.136 39.6412C169.416 39.6937 168.691 39.6036 168.005 39.376H168.005Z" fill="#2F2E41"/>
<path d="M153.85 147.11C183.408 147.11 207.369 123.149 207.369 93.5909C207.369 64.0331 183.408 40.0718 153.85 40.0718C124.292 40.0718 100.331 64.0331 100.331 93.5909C100.331 123.149 124.292 147.11 153.85 147.11Z" fill="#DFFFFB"/>
<path d="M14.4331 261.863C13.7006 261.862 12.9727 261.746 12.2758 261.521C11.3997 261.241 10.5878 260.789 9.8873 260.193C9.18677 259.597 8.61155 258.868 8.19485 258.048L1.47024 244.909C1.05143 244.091 0.79788 243.198 0.724149 242.282C0.650417 241.366 0.757917 240.444 1.04049 239.569C1.32307 238.694 1.77521 237.884 2.37106 237.184C2.96691 236.484 3.69482 235.908 4.51321 235.49L114.016 179.442C115.669 178.596 117.59 178.442 119.357 179.012C121.124 179.583 122.592 180.832 123.438 182.485L130.162 195.623C131.008 197.276 131.162 199.197 130.592 200.963C130.022 202.73 128.773 204.197 127.121 205.043L17.6162 261.091C16.6319 261.599 15.5405 261.863 14.4331 261.863V261.863Z" fill="#DFFFFB"/>
<path d="M199.614 315.341H108.614C106.36 315.338 104.2 314.442 102.606 312.849C101.013 311.255 100.116 309.095 100.114 306.841V211.341C100.114 197.019 105.803 183.284 115.93 173.157C126.057 163.03 139.792 157.341 154.114 157.341C168.435 157.341 182.171 163.03 192.297 173.157C202.424 183.284 208.114 197.019 208.114 211.341V306.841C208.111 309.095 207.215 311.255 205.621 312.849C204.028 314.442 201.867 315.338 199.614 315.341V315.341Z" fill="#CCCCCC"/>
<path d="M164.777 304.962C164.707 304.962 164.638 304.961 164.568 304.959L149.814 304.533C147.959 304.478 146.201 303.689 144.927 302.339C143.653 300.989 142.967 299.188 143.02 297.332L146.581 174.369C146.606 173.45 146.812 172.545 147.189 171.706C147.565 170.867 148.104 170.111 148.774 169.482C148.91 169.353 149.051 169.231 149.195 169.116C150.492 168.072 152.119 167.526 153.783 167.576L168.535 168.002C170.39 168.059 172.147 168.849 173.421 170.198C174.695 171.548 175.381 173.348 175.33 175.203L171.768 298.166C171.713 299.985 170.953 301.711 169.648 302.98C168.343 304.248 166.596 304.959 164.777 304.962V304.962Z" fill="#DFFFFB"/>
<path d="M150.507 164.887C151.71 163.915 153.222 163.407 154.768 163.457L169.521 163.884C171.243 163.936 172.875 164.669 174.058 165.923C175.24 167.176 175.878 168.847 175.83 170.57L179.269 227.533C179.217 229.255 178.484 230.887 177.23 232.07C175.977 233.252 174.306 233.889 172.583 233.841L172.583 233.841L144.829 233.414C143.976 233.389 143.136 233.197 142.357 232.847C141.578 232.498 140.876 231.999 140.29 231.378C139.704 230.757 139.246 230.027 138.943 229.229C138.639 228.431 138.496 227.582 138.521 226.728L144.614 170.841C144.664 169.106 148.855 166.419 150.118 165.226C150.244 165.107 150.374 164.995 150.507 164.887Z" fill="#CCCCCC"/>
<path d="M129.757 175.053C131.187 175.645 132.356 176.73 133.052 178.111L139.734 191.27C140.512 192.808 140.649 194.591 140.114 196.23C139.579 197.868 138.416 199.227 136.881 200.009L88.5029 230.278C86.9654 231.056 85.182 231.193 83.5439 230.658C81.9057 230.123 80.5467 228.96 79.7651 227.425L79.7646 227.424L66.8639 202.848C66.4774 202.087 66.2446 201.257 66.1788 200.406C66.113 199.555 66.2155 198.699 66.4804 197.888C66.7453 197.076 67.1675 196.325 67.7228 195.677C68.2781 195.029 68.9558 194.496 69.7169 194.11L124.313 175.257C125.073 174.868 125.903 174.635 126.755 174.569C127.606 174.503 128.462 174.607 129.273 174.874C129.438 174.927 129.599 174.988 129.757 175.053Z" fill="#CCCCCC"/>
<path d="M135.97 106.668C132.664 106.575 128.549 106.46 125.38 104.145C124.436 103.427 123.66 102.512 123.108 101.463C122.555 100.415 122.238 99.2576 122.18 98.0735C122.122 97.2317 122.26 96.3879 122.583 95.6083C122.905 94.8286 123.404 94.1342 124.04 93.5794C125.696 92.18 128.113 91.8528 130.719 92.6184L128.019 72.8919L130 72.6204L133.174 95.8108L131.519 95.052C129.601 94.1712 126.967 93.7239 125.331 95.1067C124.929 95.4682 124.616 95.9175 124.416 96.4197C124.216 96.9219 124.135 97.4635 124.179 98.0022C124.227 98.8836 124.465 99.7442 124.875 100.525C125.286 101.307 125.861 101.99 126.56 102.53C129.026 104.331 132.306 104.565 136.025 104.668L135.97 106.668Z" fill="#2F2E41"/>
<path d="M118.22 74.594H107.448V76.594H118.22V74.594Z" fill="#2F2E41"/>
<path d="M152.22 74.594H141.448V76.594H152.22V74.594Z" fill="#2F2E41"/>
</svg>
